<svg id="Layer_1" data-name="Layer 1" xmlns="http://www.w3.org/2000/svg" viewBox="0 0 3300 2200"><defs><style>.cls-1{fill:#fff;}.cls-11,.cls-2{fill:none;}.cls-2{stroke:#000;stroke-width:0.5px;}.cls-3,.cls-6,.cls-7{isolation:isolate;}.cls-3,.cls-6{font-size:12px;}.cls-3{font-family:Arial-BoldMT, Arial;font-weight:700;}.cls-4{letter-spacing:-0.02em;}.cls-5{letter-spacing:-0.06em;}.cls-6{font-family:ArialMT, Arial;}.cls-7{fill:#00aeef;opacity:0.4;}.cls-8{letter-spacing:-0.11em;}.cls-9{letter-spacing:-0.07em;}.cls-10{fill:#27aae1;}.cls-11{stroke:#27aae1;stroke-width:0.58px;}</style></defs><g id="Notes"><rect id="artboard" class="cls-1" width="3300" height="2200"/><line class="cls-2" x1="263" y1="292" x2="3036" y2="292"/><text class="cls-3" transform="translate(263 322)"><tspan class="cls-4">W</tspan><tspan x="11.11" y="0">eight/Scale </tspan><tspan class="cls-5" x="77.8" y="0">V</tspan><tspan x="85.14" y="0">ariations</tspan></text><text class="cls-6" transform="translate(536.04 322)">Ultralight</text><text class="cls-6" transform="translate(844.75 322)">Thin</text><text class="cls-6" transform="translate(1140.12 322)">Light</text><text class="cls-6" transform="translate(1428.83 322)">Regular</text><text class="cls-6" transform="translate(1725.22 322)">Medium</text><text class="cls-6" transform="translate(2018.26 322)">Semibold</text><text class="cls-6" transform="translate(2327.97 322)">Bold</text><text class="cls-6" transform="translate(2619.68 322)">Heavy</text><text class="cls-6" transform="translate(2918.73 322)">Black</text><line class="cls-2" x1="263" y1="1903" x2="3036" y2="1903"/><path d="M272.25,1933.83a7.88,7.88,0,1,0-7.88-7.88A7.95,7.95,0,0,0,272.25,1933.83Zm0-1.48a6.4,6.4,0,1,1,6.39-6.4A6.36,6.36,0,0,1,272.25,1932.35Zm0-2.78c.47,0,.74-.31.74-.83v-2.06h2.23c.5,0,.84-.25.84-.72s-.33-.74-.84-.74H273V1923c0-.52-.27-.84-.74-.84s-.72.34-.72.84v2.23H269.3c-.52,0-.85.26-.85.74s.35.72.85.72h2.21v2.06C271.51,1929.24,271.76,1929.57,272.23,1929.57Z"/><path d="M293.22,1935.91a10,10,0,1,0-10-10A10,10,0,0,0,293.22,1935.91Zm0-1.66a8.3,8.3,0,1,1,8.3-8.3A8.27,8.27,0,0,1,293.22,1934.25Zm0-3.66a.82.82,0,0,0,.83-.93v-2.89h3.05c.55,0,.93-.28.93-.8s-.36-.83-.93-.83H294v-3.07a.83.83,0,1,0-1.65,0v3.07h-3c-.57,0-.94.3-.94.83s.39.8.94.8h3v2.89A.82.82,0,0,0,293.2,1930.59Z"/><path d="M319.89,1938.67A12.72,12.72,0,1,0,307.18,1926,12.8,12.8,0,0,0,319.89,1938.67Zm0-1.81a10.9,10.9,0,1,1,10.9-10.9A10.87,10.87,0,0,1,319.89,1936.86Zm0-4.92a.9.9,0,0,0,.91-1v-4.07H325a.91.91,0,1,0,0-1.81h-4.24v-4.25a.89.89,0,0,0-.91-1,.88.88,0,0,0-.89,1v4.25h-4.23a.91.91,0,1,0,0,1.81H319v4.07A.88.88,0,0,0,319.88,1931.94Z"/><text class="cls-3" transform="translate(263 1953)">Design <tspan class="cls-5" x="43.34" y="0">V</tspan><tspan x="50.68" y="0">ariations</tspan></text><text class="cls-6" transform="translate(263 1971)">Symbols are supported in up to nine weights and three scales.</text><text class="cls-6" transform="translate(263 1989)">For optimal layout with text and other symbols, vertically align</text><text class="cls-6" transform="translate(263 2007)">symbols with the adjacent text.</text><rect class="cls-7" x="776" y="1919" width="3" height="14"/><path d="M789.53,1933h1.84l-5.19-14.09h-1.74l-5.2,14.09h1.85l1.42-4h5.6Zm-4.25-12h.06l2.25,6.42H783Z"/><rect class="cls-7" x="791.62" y="1919" width="3" height="14"/><text class="cls-3" transform="translate(776 1953)">Margins</text><text class="cls-6" transform="translate(776 1971)">Leading and trailing margins on the left and right side of each symbol</text><text class="cls-6" transform="translate(776 1989)">can be adjusted by modifying the width of the blue rectangles.</text><text class="cls-6" transform="translate(776 2007)">Modifications are automatically applied proportionally to all</text><text class="cls-6" transform="translate(776 2025)">scales and weights.</text><path d="M1291.83,1936.12l1.55,1.54a1.68,1.68,0,0,0,2.68-.2l10.22-11.12a1.54,1.54,0,0,0,1.28.19l1-.22.69.69,0,.52a1.64,1.64,0,0,0,.6,1.45l.81.81a1.1,1.1,0,0,0,1.64.06l3.25-3.26a1.09,1.09,0,0,0,0-1.64l-.82-.82a1.55,1.55,0,0,0-1.44-.59l-.53.06-.65-.67.28-1.14a1.55,1.55,0,0,0-.63-1.64l-2.41-2.39c-3.54-3.53-8.07-3.42-11.19-.29a1.16,1.16,0,0,0-.19,1.45,1.17,1.17,0,0,0,1.35.43,5.33,5.33,0,0,1,4.52.74l-.63,1.58a1.72,1.72,0,0,0,0,1.51L1292,1933.44A1.68,1.68,0,0,0,1291.83,1936.12Zm7.84-18.27a6.17,6.17,0,0,1,8.38.74l2.63,2.6a.69.69,0,0,1,.2.72l-.38,1.56,1.58,1.57,1-.09a.56.56,0,0,1,.6.22l.62.62-2.75,2.75-.63-.62a.57.57,0,0,1-.21-.6l.09-1-1.56-1.56-1.63.31a.56.56,0,0,1-.66-.19l-2.18-2.17a.53.53,0,0,1-.12-.7l.94-2.27a5.8,5.8,0,0,0-5.75-1.73c-.09,0-.16,0-.18,0S1299.59,1917.92,1299.67,1917.85Zm-6.57,17.56c-.49-.5-.31-.8,0-1.1l11-10.12,1.23,1.23-10.16,10.93a.67.67,0,0,1-1.08,0Z"/><text class="cls-3" transform="translate(1289 1953)">Exporting</text><text class="cls-6" transform="translate(1289 1971)">Symbols should be outlined when exporting to ensure the</text><text class="cls-6" transform="translate(1289 1989)">design is preserved when submitting to Xcode.</text><text id="template-version" class="cls-6" transform="translate(2958.85 1933)"><tspan class="cls-8">T</tspan><tspan x="6" y="0">emplate </tspan><tspan class="cls-9" x="52.03" y="0">v</tspan><tspan x="57.13" y="0">.1.0</tspan></text><text class="cls-6" transform="translate(2899.93 1951)">Generated from paperclip</text><text class="cls-6" transform="translate(2921.92 1969)"><tspan class="cls-5">T</tspan><tspan x="6.67" y="0">ypeset at 100 points</tspan></text><text class="cls-6" transform="translate(263 726)">Small</text><text class="cls-6" transform="translate(263 1156)">Medium</text><text class="cls-6" transform="translate(263 1586)">Large</text></g><g id="Guides"><g id="H-reference"><path class="cls-10" d="M393.93,696h2.74l-27.1-70.46h-2.49L340,696h2.68l9.28-24.46H384.7ZM368.2,628.91h.24l15.38,40.38h-31Z"/></g><line id="Baseline-S" class="cls-11" x1="263" y1="696" x2="3036" y2="696"/><line id="Capline-S" class="cls-11" x1="263" y1="625.54" x2="3036" y2="625.54"/><g id="H-reference-2" data-name="H-reference"><path class="cls-10" d="M393.93,1126h2.74l-27.1-70.46h-2.49L340,1126h2.68l9.28-24.46H384.7Zm-25.73-67.09h.24l15.38,40.38h-31Z"/></g><line id="Baseline-M" class="cls-11" x1="263" y1="1126" x2="3036" y2="1126"/><line id="Capline-M" class="cls-11" x1="263" y1="1055.54" x2="3036" y2="1055.54"/><g id="H-reference-3" data-name="H-reference"><path class="cls-10" d="M393.93,1556h2.74l-27.1-70.46h-2.49L340,1556h2.68l9.28-24.46H384.7Zm-25.73-67.09h.24l15.38,40.38h-31Z"/></g><line id="Baseline-L" class="cls-11" x1="263" y1="1556" x2="3036" y2="1556"/><line id="Capline-L" class="cls-11" x1="263" y1="1485.54" x2="3036" y2="1485.54"/><rect id="left-margin" class="cls-7" x="1392.08" y="1030.79" width="11.24" height="119.34"/><rect id="right-margin" class="cls-7" x="1496.39" y="1030.79" width="11.22" height="119.34"/></g><g id="Symbols"><g id="Black-L"><path d="M2974.54,1522.89l-46.92,46.88c-11.14,11.23-26.08,10.4-35.7.68s-10.49-24.46.74-35.69l65-65c5.86-5.86,15.13-8,21.43-1.71,6.4,6.45,4.15,15.63-1.71,21.49l-64.6,64.69a3.25,3.25,0,1,1-4.59-4.59l44.68-44.67a7.88,7.88,0,1,0-11.13-11.14l-44.92,44.92c-7.91,7.91-7.52,20.22-.44,27.3,7.71,7.71,19.33,7.47,27.24-.44l65-65c13.53-13.52,13.48-31.49,1.22-43.8-12.06-11.91-30.32-12.3-43.85,1.13l-65.57,65.72c-17.24,17.28-16.46,42.63-.39,58.69s41.45,16.89,58.74-.34l47.31-47.32a8.53,8.53,0,0,0-.19-11.86C2983,1519.53,2977.76,1519.77,2974.54,1522.89Z"/></g><g id="Heavy-L"><path d="M2678.34,1523.29l-46.93,46.87c-11.37,11.47-26.61,10.5-36.42.63s-10.79-25,.63-36.47l64.6-64.55c6.25-6.3,15.92-8,22.36-1.61s4.69,16.11-1.61,22.36l-63.91,64.06a4.12,4.12,0,0,1-6,.15,4.16,4.16,0,0,1,.2-6l44.43-44.43a6.87,6.87,0,0,0,.2-10,7,7,0,0,0-10,.15l-44.67,44.67c-7.52,7.57-7.13,19.14-.44,25.83,7.27,7.28,18.26,7.13,25.78-.39l64.35-64.35c13-13,12.75-30.32,1.13-42-11.48-11.38-29-12-42.09,1.07l-65,65.19c-16.8,16.79-15.87,41.26-.39,56.69s39.94,16.45,56.78-.3l47.27-47.31a7.49,7.49,0,0,0-.15-10.45C2685.81,1520.31,2681.22,1520.5,2678.34,1523.29Z"/></g><g id="Bold-L"><path d="M2382.26,1523.72l-46.92,46.93c-11.67,11.67-27.3,10.59-37.31.49s-11.18-25.59.49-37.31l64.11-64.06c6.74-6.74,16.8-8,23.34-1.42s5.32,16.61-1.41,23.34L2321.42,1555a5.09,5.09,0,1,1-7.22-7.17l44.23-44.24a5.84,5.84,0,0,0,.2-8.45,6,6,0,0,0-8.5.2l-44.38,44.38c-7.08,7.13-6.74,17.92-.44,24.17,6.79,6.79,17,6.69,24.17-.44L2393,1500c12.55-12.55,12-29.06,1.08-40-10.79-10.7-27.54-11.53-40.09,1l-64.45,64.55c-16.31,16.31-15.14,39.75-.34,54.54s38.23,16,54.59-.34l47.21-47.22a6.34,6.34,0,0,0-.09-8.88C2388.61,1521.14,2384.7,1521.38,2382.26,1523.72Z"/></g><g id="Semibold-L"><path d="M2086,1524.07,2039.05,1571c-11.82,11.87-27.74,10.64-37.89.39s-11.43-26,.44-37.89l63.72-63.72c7.08-7.08,17.43-7.91,24.07-1.27s5.76,16.94-1.32,24l-62.6,62.75a5.77,5.77,0,1,1-8.15-8.16l44-44a5.18,5.18,0,0,0,.2-7.47,5.27,5.27,0,0,0-7.47.19L2009.9,1540c-6.74,6.84-6.4,17.09-.44,23,6.44,6.45,16.21,6.4,23-.44l62.94-62.94c12.16-12.16,11.43-28.12,1-38.62-10.3-10.26-26.46-11.23-38.67.93l-64.06,64.16c-16,16-14.65,38.67-.35,53s37.11,15.63,53.08-.29l47.17-47.22a5.58,5.58,0,0,0-.05-7.81C2091.54,1521.72,2088.12,1522,2086,1524.07Z"/></g><g id="Medium-L"><path d="M1789.54,1524.26l-46.92,47c-12,12-28.08,10.7-38.33.35s-11.62-26.27.39-38.33l63.48-63.43c7.32-7.37,17.87-7.91,24.56-1.22s6.1,17.23-1.22,24.56l-62.21,62.3a6.26,6.26,0,1,1-8.84-8.84l43.9-43.89a4.58,4.58,0,1,0-6.49-6.45l-44,44c-6.54,6.59-6.2,16.4-.44,22.16,6.16,6.16,15.58,6.16,22.17-.44l62.5-62.5c11.91-11.91,11-27.49.93-37.59-9.91-9.92-25.69-11-37.6.92l-63.77,63.77c-15.72,15.73-14.31,37.94-.29,51.91s36.18,15.43,51.9-.29l47.17-47.17a5,5,0,0,0-.05-7A4.8,4.8,0,0,0,1789.54,1524.26Z"/></g><g id="Regular-L"><path d="M1493.27,1524.6l-47,46.93c-12.16,12.16-28.47,10.79-38.92.29s-11.86-26.71.35-38.87l63.13-63.13c7.62-7.67,18.51-7.86,25.24-1.12s6.55,17.57-1.12,25.24l-61.67,61.77a6.93,6.93,0,1,1-9.81-9.77l43.75-43.7a3.86,3.86,0,1,0-5.47-5.42l-43.8,43.85c-6.3,6.3-6,15.57-.49,21.09,5.81,5.81,14.75,5.81,21-.49l62-62c11.57-11.57,10.5-26.56.88-36.18s-24.66-10.79-36.28.83l-63.33,63.38c-15.38,15.38-13.82,36.86-.29,50.39s35,15.09,50.43-.25l47.12-47.11a4.26,4.26,0,0,0,0-6A4,4,0,0,0,1493.27,1524.6Z"/></g><g id="Light-L"><path d="M1197.59,1524.6l-47.8,47.81c-12.26,12.25-28.86,10.64-39.41.09s-12.15-27.1.1-39.45l63.14-63c8.2-8.25,19.28-7.42,25.87-.83s7.38,17.63-.83,25.88L1137,1556.83a7.57,7.57,0,0,1-11.09.2c-2.78-2.84-3.46-7.38.2-11.09l44.53-44.53a3,3,0,1,0-4.25-4.25l-44.63,44.63c-6,6.1-5.56,14.65-.44,19.78,5.37,5.37,13.72,5.66,19.78-.39l61.91-61.92c11.28-11.28,9.42-25.68.64-34.47s-23.15-10.65-34.48.68L1106,1528.61c-15.14,15.13-13,35.59-.2,48.43s33.3,14.9,48.44-.24l47.75-47.75a3.26,3.26,0,0,0,.1-4.64A3.2,3.2,0,0,0,1197.59,1524.6Z"/></g><g id="Thin-L"><path d="M902.3,1524.6l-48.93,48.93c-12.5,12.4-29.39,10.55-40.14-.2s-12.59-27.58-.14-40.08l63-63c9-9,20.41-6.79,26.76-.44s8.55,17.67-.44,26.71l-61.77,61.76c-4.15,4.11-9.27,3.47-12.59.25s-3.86-8.5.19-12.65l45.71-45.6a1.93,1.93,0,1,0-2.74-2.69l-45.65,45.66c-5.76,5.81-5.08,13.42-.39,18.11s12.35,5.42,18.11-.39l61.82-61.77c10.89-10.89,8-24.46.39-32.17s-21.19-10.45-32.13.48l-62.74,62.75c-14.9,14.89-12,33.88-.15,45.8s31,14.7,45.85-.1L905,1527.29a2,2,0,0,0,.15-2.88A2,2,0,0,0,902.3,1524.6Z"/></g><g id="Ultralight-L"><path d="M606.27,1524.6l-49.46,49.47c-12.6,12.5-29.64,10.54-40.48-.3s-12.8-27.88-.3-40.48l63-62.93c9.33-9.43,20.95-6.45,27.15-.2,6.2,6.1,9.13,17.68-.24,27.15L544.21,1559c-4.35,4.29-9.82,3.76-13.38.29s-4.05-9.08.24-13.43l46.24-46.19a1.29,1.29,0,0,0,.1-2,1.26,1.26,0,0,0-2,.15L529.22,1544c-5.67,5.66-4.89,12.84-.39,17.28s11.62,5.28,17.28-.39l61.72-61.72c10.69-10.69,7.37-23.82.24-31s-20.16-10.4-30.9.34l-62.6,62.55c-14.7,14.74-11.48,33.05-.05,44.48s29.83,14.6,44.48,0l49.12-49.12a1.4,1.4,0,0,0,.15-2A1.42,1.42,0,0,0,606.27,1524.6Z"/></g><g id="Black-M"><path d="M2965.12,1091.87l-36.82,36.77c-8.35,8.44-19.63,7.91-26.9.53s-7.82-18.45.63-26.9l51-51c4.25-4.29,11.08-6,15.72-1.36s2.93,11.47-1.37,15.77l-51,51.12a1.9,1.9,0,0,1-2.74.1,1.84,1.84,0,0,1,.2-2.64l35.4-35.4a6.94,6.94,0,0,0,.14-10,7,7,0,0,0-10,.15l-35.59,35.54a16,16,0,0,0-.3,22.51c6.3,6.3,15.87,6.2,22.42-.29l51.36-51.42c10.94-10.93,10.79-25.44.93-35.35-9.76-9.67-24.51-10-35.45.83l-51.41,51.57c-13.82,13.86-13.19,34.17-.3,47.07s33.26,13.52,47.12-.3l37.11-37.11a7.51,7.51,0,0,0-.19-10.35A7.05,7.05,0,0,0,2965.12,1091.87Z"/></g><g id="Heavy-M"><path d="M2668.69,1092.31l-36.57,36.57c-8.59,8.64-20.17,8-27.64.49s-8.1-18.95.59-27.64l50.49-50.49c4.59-4.59,11.76-6.1,16.55-1.27s3.32,12-1.27,16.56l-50.24,50.39a2.59,2.59,0,0,1-3.76.1,2.54,2.54,0,0,1,.19-3.67l34.91-35a6.07,6.07,0,0,0,.15-8.79,6.2,6.2,0,0,0-8.79.15l-35.11,35.11a15.07,15.07,0,0,0-.34,21.19c6,6,15,5.86,21.19-.34l50.59-50.59c10.5-10.5,10.3-24.41.88-33.89-9.28-9.18-23.44-9.61-34,.83l-50.88,51c-13.37,13.43-12.69,33-.29,45.41s32,13.18,45.51-.24l36.87-36.87a6.67,6.67,0,0,0-.15-9.18C2675.28,1089.72,2671.23,1089.87,2668.69,1092.31Z"/></g><g id="Bold-M"><path d="M2372.35,1092.8,2336,1129.12c-8.89,8.94-20.75,8.16-28.42.44s-8.4-19.43.49-28.36l49.95-50c4.93-4.93,12.5-6.2,17.53-1.22s3.71,12.55-1.22,17.48L2324.94,1117a3.36,3.36,0,1,1-4.74-4.74l34.42-34.38a5.22,5.22,0,1,0-7.37-7.37l-34.57,34.57a14.07,14.07,0,0,0-.29,19.78c5.52,5.51,13.91,5.42,19.68-.34l49.75-49.71c10-10.06,9.77-23.29.83-32.23-8.74-8.74-22.22-9.23-32.27.78l-50.3,50.39c-12.94,13-12.2,31.74-.29,43.66s30.66,12.64,43.65-.25l36.62-36.62a5.7,5.7,0,0,0-.09-7.86A5.35,5.35,0,0,0,2372.35,1092.8Z"/></g><g id="Semibold-M"><path d="M2075.89,1093.14l-36.18,36.18c-9,9.08-21.15,8.25-28.91.39s-8.64-19.82.44-28.91l49.56-49.6c5.18-5.18,13-6.25,18.11-1.13s4.06,12.94-1.12,18.12L2029,1117.11a3.86,3.86,0,0,1-5.66.1,3.91,3.91,0,0,1,.15-5.66l34-34a4.57,4.57,0,0,0,.15-6.59,4.61,4.61,0,0,0-6.6.15l-34.18,34.23a13.33,13.33,0,0,0-.39,18.75c5.28,5.27,13.28,5.12,18.75-.34l49.12-49.13c9.72-9.71,9.38-22.51.83-31.1-8.39-8.35-21.38-8.89-31.1.83l-50,50c-12.6,12.6-11.77,30.81-.24,42.33s29.73,12.36,42.38-.24l36.42-36.43a5,5,0,0,0,0-6.93A4.69,4.69,0,0,0,2075.89,1093.14Z"/></g><g id="Medium-M"><g id="Medium-M-2" data-name="Medium-M"><path d="M1687.71,1145.57a4,4,0,0,1-3.78-5.33l10.42-29.51a3.92,3.92,0,0,1,1-1.53l66.69-65.13c1.08-1.21,7.28-7.7,15.49-6.6s15.67,8.39,16.57,15.94c.71,5.94-5.88,13-7.91,15L1720,1133.16a4.13,4.13,0,0,1-1.37.88l-29.5,11.27A3.88,3.88,0,0,1,1687.71,1145.57Zm13.87-31.3-7.23,20.48,20.65-7.89,65.55-64.16c2.94-2.93,5.66-7,5.57-8.35-.42-3.51-4.83-8.29-9.69-8.95-4.46-.6-8.43,4-8.47,4a3.33,3.33,0,0,1-.25.28Z"/><path d="M1783.5,1068.9a3.94,3.94,0,0,1-2.73-1.08l-18.57-17.36a4,4,0,1,1,5.47-5.84l18.56,17.36a4,4,0,0,1,.19,5.65A3.94,3.94,0,0,1,1783.5,1068.9Z"/><path d="M1717.4,1134a4,4,0,0,1-2.75-1.09l-19-17.89a4,4,0,0,1,5.49-5.82l19,17.89a4,4,0,0,1-2.74,6.91Z"/></g></g><g id="Regular-M"><path d="M1482.9,1093.72,1447,1129.61c-9.32,9.38-21.87,8.45-29.88.35s-9-20.46.34-29.84l49-48.92c5.61-5.62,13.86-6.4,19.23-1.08s4.54,13.62-1,19.24l-47.85,47.85a4.69,4.69,0,0,1-7,.1,4.81,4.81,0,0,1,0-7l33.45-33.35a3.46,3.46,0,1,0-4.88-4.89l-33.55,33.55a12,12,0,0,0-.39,17c4.79,4.79,12,4.69,17-.34l48-48c9.13-9.13,8.74-21.14.78-29.1-7.76-7.76-20-8.35-29.1.78l-49.22,49.27c-12.06,12.06-11.13,29.3-.24,40.19s28.12,11.76,40.18-.25l36.13-36.13a3.82,3.82,0,0,0,0-5.32A3.6,3.6,0,0,0,1482.9,1093.72Z"/></g><g id="Light-M"><path d="M1187.12,1093.72l-36.67,36.67c-9.43,9.48-22.17,8.31-30.32.15s-9.28-20.8.19-30.32l48.93-48.88c6.1-6.15,14.6-6,19.77-.78s5.32,13.67-.78,19.78l-47.8,47.9a5.63,5.63,0,1,1-8-8l34.18-34.13a2.76,2.76,0,0,0,.1-4,2.72,2.72,0,0,0-4,.15l-34.23,34.23c-4.78,4.83-4.49,11.76-.34,15.91,4.35,4.35,11.08,4.45,15.92-.34l48-48c8.83-8.88,7.76-20.31.58-27.49s-18.65-8.3-27.54.59l-49,49c-11.87,11.87-10.45,28.18-.2,38.43s26.57,11.62,38.38-.19l36.77-36.72a2.93,2.93,0,0,0,0-4.15A2.82,2.82,0,0,0,1187.12,1093.72Z"/></g><g id="Thin-M"><path d="M891.65,1093.72,854,1131.42c-9.62,9.57-22.66,8.2-31-.1s-9.67-21.29,0-30.91l48.88-48.87c6.78-6.84,15.57-5.37,20.5-.39s6.4,13.67-.39,20.5l-47.85,47.9a6.56,6.56,0,1,1-9.28-9.27L870,1075.12a1.72,1.72,0,1,0-2.44-2.39l-35.16,35.15c-4.54,4.55-4,10.7-.34,14.41s9.86,4.25,14.45-.29l47.9-48c8.5-8.5,6.55-19.19.35-25.39s-16.85-8.16-25.44.39l-48.68,48.73c-11.58,11.57-9.53,26.61-.1,36s24.51,11.48,36.08-.1l37.5-37.5a1.77,1.77,0,1,0-2.49-2.49Z"/></g><g id="Ultralight-M"><path d="M595.62,1093.72l-38.23,38.19c-9.71,9.67-22.85,8.15-31.25-.2s-9.86-21.53-.19-31.25l48.87-48.78c7.13-7.22,16.07-5.07,20.9-.24s6.94,13.72-.19,20.9l-47.9,47.85a6.93,6.93,0,0,1-10.16.19c-2.64-2.68-3.08-6.83.2-10.15l35.69-35.6a1.17,1.17,0,0,0,0-1.8,1.15,1.15,0,0,0-1.81.09L536,1108.57c-4.45,4.39-3.86,10.11-.35,13.62s9.23,4.1,13.68-.29l47.85-47.85c8.35-8.35,5.95-18.66.24-24.37s-16-8.1-24.36.29l-48.54,48.54c-11.43,11.47-9,25.88,0,34.86s23.49,11.38,34.86,0l37.94-37.89a1.3,1.3,0,0,0,.15-1.8A1.27,1.27,0,0,0,595.62,1093.72Z"/></g><g id="Black-S"><path d="M2958.28,661.67l-28.81,28.76c-6.59,6.64-15.43,6.2-21.14.44s-6.15-14.5.49-21.14l39.89-39.89c3.37-3.37,8.74-4.74,12.4-1.08s2.3,9-1.07,12.41l-39.89,40a1.51,1.51,0,0,1-2.2.09,1.49,1.49,0,0,1,.15-2.14l27.68-27.69a5.33,5.33,0,0,0,.1-7.71,5.42,5.42,0,0,0-7.71.09l-27.84,27.83a12.46,12.46,0,0,0-.24,17.53c4.93,4.94,12.4,4.84,17.48-.24l40.19-40.19c8.54-8.54,8.44-19.87.73-27.63-7.62-7.52-19.14-7.81-27.69.68l-40.23,40.33c-10.79,10.84-10.3,26.71-.25,36.77s26,10.6,36.82-.19l29.05-29.06a5.84,5.84,0,0,0-.14-8A5.5,5.5,0,0,0,2958.28,661.67Z"/></g><g id="Heavy-S"><path d="M2661.66,662l-28.56,28.51c-6.74,6.79-15.77,6.3-21.58.44s-6.35-14.84.43-21.63l39.56-39.55c3.51-3.57,9.13-4.83,12.93-1s2.54,9.43-1,12.94l-39.31,39.41a1.94,1.94,0,1,1-2.73-2.74l27.24-27.24a4.79,4.79,0,0,0,.1-6.94,4.94,4.94,0,0,0-7,.1l-27.34,27.39a11.9,11.9,0,0,0-.3,16.7c4.74,4.69,11.82,4.54,16.65-.29l39.6-39.6c8.25-8.2,8.16-19.14.74-26.66-7.33-7.23-18.46-7.52-26.71.68l-39.9,40c-10.49,10.54-10,26-.24,35.74s25.24,10.3,35.79-.2l28.81-28.81a5.25,5.25,0,0,0-.15-7.27A4.94,4.94,0,0,0,2661.66,662Z"/></g><g id="Bold-S"><path d="M2365.1,662.36l-28.27,28.27c-6.93,7-16.21,6.44-22.17.39s-6.54-15.19.44-22.12l39.11-39.16c3.76-3.76,9.67-5,13.63-1s2.73,9.82-1,13.58l-38.67,38.77a2.41,2.41,0,0,1-3.57,0,2.45,2.45,0,0,1,.1-3.57l26.71-26.76a4.23,4.23,0,0,0,.15-6.1,4.28,4.28,0,0,0-6.11.15l-26.9,26.9a11.15,11.15,0,0,0-.24,15.68c4.44,4.44,11.13,4.29,15.67-.25l38.92-39c8-7.91,7.91-18.41.73-25.59-7-6.93-17.73-7.18-25.64.68l-39.45,39.55c-10.16,10.16-9.67,25.1-.24,34.53s24.41,10,34.57-.2l28.56-28.51a4.7,4.7,0,0,0-.1-6.45A4.44,4.44,0,0,0,2365.1,662.36Z"/></g><g id="Semibold-S"><path d="M2068.49,662.65l-28.08,28.08c-7,7.08-16.46,6.49-22.51.39s-6.69-15.48.39-22.56l38.87-38.82c3.9-3.91,10-5.08,14-1s2.93,10.11-1,14L2032,681.06a2.79,2.79,0,0,1-4.1.05,2.73,2.73,0,0,1,.1-4.06l26.37-26.41a3.8,3.8,0,0,0,.14-5.52,3.93,3.93,0,0,0-5.52.15l-26.51,26.56a10.68,10.68,0,0,0-.29,15c4.25,4.25,10.69,4,15-.29l38.47-38.48c7.67-7.67,7.67-17.87.74-24.85-6.84-6.79-17.24-7-24.91.68l-39.16,39.26c-10,9.91-9.47,24.51-.24,33.74s23.78,9.71,33.74-.25l28.37-28.32a4.19,4.19,0,0,0-.1-5.81A4,4,0,0,0,2068.49,662.65Z"/></g><g id="Medium-S"><path d="M1771.85,662.85l-27.93,27.93c-7.13,7.17-16.65,6.54-22.81.39s-6.78-15.63.39-22.81l38.63-38.67c4-4,10.2-5.13,14.4-1s3,10.41-1,14.36l-37.9,38a3,3,0,0,1-4.49.05,3.08,3.08,0,0,1,0-4.49l26.17-26.13a3.49,3.49,0,1,0-4.93-4.93l-26.27,26.27a10.32,10.32,0,0,0-.29,14.55c4.1,4.1,10.3,4,14.5-.29L1778.58,648c7.48-7.52,7.48-17.48.69-24.26-6.64-6.65-16.8-6.84-24.32.68l-39,39c-9.77,9.77-9.28,24.08-.25,33.16s23.39,9.52,33.16-.25l28.22-28.22a3.76,3.76,0,0,0-.1-5.32A3.58,3.58,0,0,0,1771.85,662.85Z"/></g><g id="Regular-S"><path d="M1475.28,663.09l-27.78,27.73c-7.23,7.33-17,6.64-23.15.39s-6.93-15.86.34-23.19l38.38-38.33c4.15-4.15,10.5-5.22,14.8-1s3.17,10.65-.93,14.8L1439.49,681a3.49,3.49,0,1,1-4.93-4.93l25.78-25.78a3.14,3.14,0,0,0,.14-4.5,3.17,3.17,0,0,0-4.49.15l-25.93,25.93a10,10,0,0,0-.29,13.91c4,3.91,9.86,3.72,13.92-.29l37.64-37.69c7.28-7.28,7.28-17,.74-23.54s-16.31-6.64-23.59.64l-38.67,38.77c-9.57,9.52-9.08,23.48-.24,32.32s22.8,9.28,32.32-.24l28-28a3.38,3.38,0,0,0-.05-4.74A3.2,3.2,0,0,0,1475.28,663.09Z"/></g><g id="Light-S"><path d="M1179.4,663.09,1151,691.51c-7.38,7.37-17.29,6.54-23.59.19s-7.17-16.16.2-23.58l38.33-38.28c4.59-4.64,11.18-4.84,15.28-.73s3.91,10.69-.68,15.28l-37.5,37.5a4.11,4.11,0,1,1-5.81-5.81l26.46-26.47a2.42,2.42,0,1,0-3.42-3.41l-26.51,26.56a9,9,0,0,0-.29,12.89c3.56,3.56,9,3.56,12.89-.25L1184,647.76c7-7,6.45-16.21.54-22.17s-15.13-6.49-22.21.54l-38.48,38.52c-9.33,9.38-8.45,22.51-.15,30.76s21.44,9.18,30.76-.14L1183,666.7a2.68,2.68,0,0,0,0-3.71A2.56,2.56,0,0,0,1179.4,663.09Z"/></g><g id="Thin-S"><path d="M883.79,663.09l-29.3,29.3c-7.52,7.52-17.67,6.49-24.12,0s-7.52-16.6,0-24.12L868.65,630c5.18-5.17,12-4.29,16-.39s4.79,10.75-.39,16l-37.5,37.5a5,5,0,1,1-7-7l27.39-27.3a1.57,1.57,0,0,0,0-2.29,1.52,1.52,0,0,0-2.25.1L837.5,673.93a8.05,8.05,0,0,0-.24,11.57c3.07,3.08,8,3.37,11.57-.24l37.55-37.55c6.74-6.74,5.37-15.28.34-20.31s-13.53-6.45-20.31.34L828.17,666c-9.13,9.13-7.61,21.14-.09,28.71s19.63,9,28.71-.1L886,665.34a1.64,1.64,0,0,0,0-2.35A1.58,1.58,0,0,0,883.79,663.09Z"/></g><g id="Ultralight-S"><path d="M587.67,663.09l-29.79,29.79c-7.57,7.56-17.87,6.39-24.41-.15s-7.67-16.8-.1-24.37l38.28-38.23a11.15,11.15,0,0,1,16.31-.24c3.81,3.76,5.22,10.74-.25,16.26l-37.5,37.5A5.39,5.39,0,1,1,542.6,676l27.83-27.78a1.11,1.11,0,0,0,.05-1.62,1,1,0,0,0-1.61.1l-27.79,27.79c-3.51,3.51-3.07,8.1-.29,10.88s7.42,3.28,10.94-.24l37.5-37.5c6.59-6.59,4.78-14.75.19-19.34s-12.69-6.39-19.33.25L532,666.65c-9,9-7.22,20.46,0,27.64s18.66,8.89,27.64,0l29.59-29.64a1.08,1.08,0,1,0-1.51-1.51Z"/></g></g></svg>